<mxfile host="app.diagrams.net" agent="Mozilla/5.0 (Windows NT 10.0; Win64; x64) AppleWebKit/537.36 (KHTML, like Gecko) Chrome/128.0.0.0 Safari/537.36" version="24.7.10">
  <diagram name="PÃ¡gina-1" id="gvJi5QG3eKSCH-d8dVN3">
    <mxGraphModel dx="1862" dy="522" grid="1" gridSize="10" guides="1" tooltips="1" connect="1" arrows="1" fold="1" page="1" pageScale="1" pageWidth="827" pageHeight="1169" math="0" shadow="0">
      <root>
        <mxCell id="0" />
        <mxCell id="1" parent="0" />
        <mxCell id="7FaVFJheZvbhYCqxz50x-1" value="" style="rounded=0;whiteSpace=wrap;html=1;" vertex="1" parent="1">
          <mxGeometry x="80" y="40" width="540" height="550" as="geometry" />
        </mxCell>
        <mxCell id="7FaVFJheZvbhYCqxz50x-2" value="Blog pessoal" style="text;html=1;align=center;verticalAlign=middle;resizable=0;points=[];autosize=1;strokeColor=none;fillColor=none;" vertex="1" parent="1">
          <mxGeometry x="305" y="10" width="90" height="30" as="geometry" />
        </mxCell>
        <mxCell id="7FaVFJheZvbhYCqxz50x-14" style="rounded=0;orthogonalLoop=1;jettySize=auto;html=1;exitX=1;exitY=0.3333333333333333;exitDx=0;exitDy=0;exitPerimeter=0;entryX=0;entryY=0.5;entryDx=0;entryDy=0;endArrow=none;endFill=0;" edge="1" parent="1" source="7FaVFJheZvbhYCqxz50x-3" target="7FaVFJheZvbhYCqxz50x-12">
          <mxGeometry relative="1" as="geometry" />
        </mxCell>
        <mxCell id="7FaVFJheZvbhYCqxz50x-15" style="rounded=0;orthogonalLoop=1;jettySize=auto;html=1;exitX=1;exitY=0.3333333333333333;exitDx=0;exitDy=0;exitPerimeter=0;entryX=0;entryY=0.5;entryDx=0;entryDy=0;endArrow=none;endFill=0;" edge="1" parent="1" source="7FaVFJheZvbhYCqxz50x-3" target="7FaVFJheZvbhYCqxz50x-13">
          <mxGeometry relative="1" as="geometry" />
        </mxCell>
        <mxCell id="7FaVFJheZvbhYCqxz50x-16" style="rounded=0;orthogonalLoop=1;jettySize=auto;html=1;exitX=1;exitY=0.3333333333333333;exitDx=0;exitDy=0;exitPerimeter=0;entryX=0;entryY=0.5;entryDx=0;entryDy=0;endArrow=none;endFill=0;" edge="1" parent="1" source="7FaVFJheZvbhYCqxz50x-3" target="7FaVFJheZvbhYCqxz50x-8">
          <mxGeometry relative="1" as="geometry" />
        </mxCell>
        <mxCell id="7FaVFJheZvbhYCqxz50x-17" style="rounded=0;orthogonalLoop=1;jettySize=auto;html=1;exitX=1;exitY=0.3333333333333333;exitDx=0;exitDy=0;exitPerimeter=0;entryX=0;entryY=0.5;entryDx=0;entryDy=0;endArrow=none;endFill=0;" edge="1" parent="1" source="7FaVFJheZvbhYCqxz50x-3" target="7FaVFJheZvbhYCqxz50x-9">
          <mxGeometry relative="1" as="geometry" />
        </mxCell>
        <mxCell id="7FaVFJheZvbhYCqxz50x-18" style="rounded=0;orthogonalLoop=1;jettySize=auto;html=1;exitX=1;exitY=0.3333333333333333;exitDx=0;exitDy=0;exitPerimeter=0;entryX=0;entryY=0.5;entryDx=0;entryDy=0;endArrow=none;endFill=0;" edge="1" parent="1" source="7FaVFJheZvbhYCqxz50x-3" target="7FaVFJheZvbhYCqxz50x-10">
          <mxGeometry relative="1" as="geometry" />
        </mxCell>
        <mxCell id="7FaVFJheZvbhYCqxz50x-19" style="rounded=0;orthogonalLoop=1;jettySize=auto;html=1;exitX=1;exitY=0.3333333333333333;exitDx=0;exitDy=0;exitPerimeter=0;entryX=0;entryY=0.5;entryDx=0;entryDy=0;endArrow=none;endFill=0;" edge="1" parent="1" source="7FaVFJheZvbhYCqxz50x-3" target="7FaVFJheZvbhYCqxz50x-11">
          <mxGeometry relative="1" as="geometry" />
        </mxCell>
        <mxCell id="7FaVFJheZvbhYCqxz50x-51" style="rounded=0;orthogonalLoop=1;jettySize=auto;html=1;exitX=1;exitY=0.3333333333333333;exitDx=0;exitDy=0;exitPerimeter=0;entryX=0;entryY=0.5;entryDx=0;entryDy=0;endArrow=none;endFill=0;" edge="1" parent="1" source="7FaVFJheZvbhYCqxz50x-3" target="7FaVFJheZvbhYCqxz50x-50">
          <mxGeometry relative="1" as="geometry" />
        </mxCell>
        <mxCell id="7FaVFJheZvbhYCqxz50x-3" value="Cliente" style="shape=umlActor;verticalLabelPosition=bottom;verticalAlign=top;html=1;" vertex="1" parent="1">
          <mxGeometry x="-30" y="160" width="60" height="120" as="geometry" />
        </mxCell>
        <mxCell id="7FaVFJheZvbhYCqxz50x-22" style="rounded=0;orthogonalLoop=1;jettySize=auto;html=1;exitX=0;exitY=0.3333333333333333;exitDx=0;exitDy=0;exitPerimeter=0;entryX=1;entryY=0.5;entryDx=0;entryDy=0;endArrow=none;endFill=0;" edge="1" parent="1" source="7FaVFJheZvbhYCqxz50x-5" target="7FaVFJheZvbhYCqxz50x-8">
          <mxGeometry relative="1" as="geometry" />
        </mxCell>
        <mxCell id="7FaVFJheZvbhYCqxz50x-23" style="rounded=0;orthogonalLoop=1;jettySize=auto;html=1;exitX=0;exitY=0.3333333333333333;exitDx=0;exitDy=0;exitPerimeter=0;entryX=1;entryY=0.5;entryDx=0;entryDy=0;endArrow=none;endFill=0;" edge="1" parent="1" source="7FaVFJheZvbhYCqxz50x-5" target="7FaVFJheZvbhYCqxz50x-12">
          <mxGeometry relative="1" as="geometry">
            <Array as="points">
              <mxPoint x="570" y="50" />
              <mxPoint x="420" y="50" />
            </Array>
          </mxGeometry>
        </mxCell>
        <mxCell id="7FaVFJheZvbhYCqxz50x-5" value="Servidor" style="shape=umlActor;verticalLabelPosition=bottom;verticalAlign=top;html=1;" vertex="1" parent="1">
          <mxGeometry x="680" y="60" width="60" height="120" as="geometry" />
        </mxCell>
        <mxCell id="7FaVFJheZvbhYCqxz50x-34" style="rounded=0;orthogonalLoop=1;jettySize=auto;html=1;entryX=0;entryY=0;entryDx=0;entryDy=0;dashed=1;dashPattern=12 12;endArrow=open;endFill=0;" edge="1" parent="1" source="7FaVFJheZvbhYCqxz50x-8" target="7FaVFJheZvbhYCqxz50x-25">
          <mxGeometry relative="1" as="geometry" />
        </mxCell>
        <mxCell id="7FaVFJheZvbhYCqxz50x-41" value="&amp;lt;&amp;lt;incluir&amp;gt;&amp;gt;" style="edgeLabel;html=1;align=center;verticalAlign=middle;resizable=0;points=[];" vertex="1" connectable="0" parent="7FaVFJheZvbhYCqxz50x-34">
          <mxGeometry x="-0.1222" y="2" relative="1" as="geometry">
            <mxPoint as="offset" />
          </mxGeometry>
        </mxCell>
        <mxCell id="7FaVFJheZvbhYCqxz50x-8" value="Comentar e curtir" style="ellipse;whiteSpace=wrap;html=1;" vertex="1" parent="1">
          <mxGeometry x="160" y="180" width="100" height="50" as="geometry" />
        </mxCell>
        <mxCell id="7FaVFJheZvbhYCqxz50x-35" style="rounded=0;orthogonalLoop=1;jettySize=auto;html=1;entryX=0;entryY=0.5;entryDx=0;entryDy=0;dashed=1;dashPattern=12 12;endArrow=open;endFill=0;" edge="1" parent="1" source="7FaVFJheZvbhYCqxz50x-9" target="7FaVFJheZvbhYCqxz50x-25">
          <mxGeometry relative="1" as="geometry">
            <mxPoint x="420" y="240" as="targetPoint" />
          </mxGeometry>
        </mxCell>
        <mxCell id="7FaVFJheZvbhYCqxz50x-42" value="&amp;lt;&amp;lt;incluir&amp;gt;&amp;gt;" style="edgeLabel;html=1;align=center;verticalAlign=middle;resizable=0;points=[];" vertex="1" connectable="0" parent="7FaVFJheZvbhYCqxz50x-35">
          <mxGeometry x="-0.0449" y="-3" relative="1" as="geometry">
            <mxPoint as="offset" />
          </mxGeometry>
        </mxCell>
        <mxCell id="7FaVFJheZvbhYCqxz50x-9" value="Compartilhar" style="ellipse;whiteSpace=wrap;html=1;" vertex="1" parent="1">
          <mxGeometry x="160" y="255" width="100" height="50" as="geometry" />
        </mxCell>
        <mxCell id="7FaVFJheZvbhYCqxz50x-36" style="rounded=0;orthogonalLoop=1;jettySize=auto;html=1;exitX=1;exitY=0.5;exitDx=0;exitDy=0;entryX=0;entryY=1;entryDx=0;entryDy=0;dashed=1;dashPattern=12 12;endArrow=open;endFill=0;" edge="1" parent="1" source="7FaVFJheZvbhYCqxz50x-10" target="7FaVFJheZvbhYCqxz50x-25">
          <mxGeometry relative="1" as="geometry" />
        </mxCell>
        <mxCell id="7FaVFJheZvbhYCqxz50x-43" value="&amp;lt;&amp;lt;incluir&amp;gt;&amp;gt;" style="edgeLabel;html=1;align=center;verticalAlign=middle;resizable=0;points=[];" vertex="1" connectable="0" parent="7FaVFJheZvbhYCqxz50x-36">
          <mxGeometry x="-0.005" y="2" relative="1" as="geometry">
            <mxPoint as="offset" />
          </mxGeometry>
        </mxCell>
        <mxCell id="7FaVFJheZvbhYCqxz50x-10" value="Conversar com&lt;div&gt;o dono&lt;/div&gt;" style="ellipse;whiteSpace=wrap;html=1;" vertex="1" parent="1">
          <mxGeometry x="160" y="325" width="100" height="50" as="geometry" />
        </mxCell>
        <mxCell id="7FaVFJheZvbhYCqxz50x-37" style="rounded=0;orthogonalLoop=1;jettySize=auto;html=1;entryX=0.5;entryY=1;entryDx=0;entryDy=0;dashed=1;dashPattern=12 12;endArrow=open;endFill=0;exitX=1;exitY=0.5;exitDx=0;exitDy=0;" edge="1" parent="1" source="7FaVFJheZvbhYCqxz50x-11" target="7FaVFJheZvbhYCqxz50x-25">
          <mxGeometry relative="1" as="geometry" />
        </mxCell>
        <mxCell id="7FaVFJheZvbhYCqxz50x-44" value="&amp;lt;&amp;lt;incluir&amp;gt;&amp;gt;" style="edgeLabel;html=1;align=center;verticalAlign=middle;resizable=0;points=[];" vertex="1" connectable="0" parent="7FaVFJheZvbhYCqxz50x-37">
          <mxGeometry x="-0.0834" y="-3" relative="1" as="geometry">
            <mxPoint as="offset" />
          </mxGeometry>
        </mxCell>
        <mxCell id="7FaVFJheZvbhYCqxz50x-11" value="Dae feedback de&lt;div&gt;uso do site&lt;/div&gt;" style="ellipse;whiteSpace=wrap;html=1;" vertex="1" parent="1">
          <mxGeometry x="160" y="390" width="100" height="50" as="geometry" />
        </mxCell>
        <mxCell id="7FaVFJheZvbhYCqxz50x-33" style="rounded=0;orthogonalLoop=1;jettySize=auto;html=1;exitX=1;exitY=0.5;exitDx=0;exitDy=0;entryX=0;entryY=0.5;entryDx=0;entryDy=0;dashed=1;dashPattern=12 12;endArrow=open;endFill=0;" edge="1" parent="1" source="7FaVFJheZvbhYCqxz50x-12" target="7FaVFJheZvbhYCqxz50x-27">
          <mxGeometry relative="1" as="geometry" />
        </mxCell>
        <mxCell id="7FaVFJheZvbhYCqxz50x-38" value="&amp;lt;&amp;lt;incluir&amp;gt;&amp;gt;" style="edgeLabel;html=1;align=center;verticalAlign=middle;resizable=0;points=[];" vertex="1" connectable="0" parent="7FaVFJheZvbhYCqxz50x-33">
          <mxGeometry x="-0.0571" y="1" relative="1" as="geometry">
            <mxPoint as="offset" />
          </mxGeometry>
        </mxCell>
        <mxCell id="7FaVFJheZvbhYCqxz50x-12" value="Fazer login e&lt;div&gt;registro&lt;/div&gt;" style="ellipse;whiteSpace=wrap;html=1;" vertex="1" parent="1">
          <mxGeometry x="160" y="60" width="100" height="50" as="geometry" />
        </mxCell>
        <mxCell id="7FaVFJheZvbhYCqxz50x-13" value="Ler o conteÃºdo" style="ellipse;whiteSpace=wrap;html=1;" vertex="1" parent="1">
          <mxGeometry x="160" y="120" width="100" height="50" as="geometry" />
        </mxCell>
        <mxCell id="7FaVFJheZvbhYCqxz50x-21" style="rounded=0;orthogonalLoop=1;jettySize=auto;html=1;exitX=0;exitY=0.3333333333333333;exitDx=0;exitDy=0;exitPerimeter=0;entryX=1;entryY=0.5;entryDx=0;entryDy=0;endArrow=none;endFill=0;" edge="1" parent="1" source="7FaVFJheZvbhYCqxz50x-20" target="7FaVFJheZvbhYCqxz50x-10">
          <mxGeometry relative="1" as="geometry">
            <Array as="points">
              <mxPoint x="550" y="295" />
            </Array>
          </mxGeometry>
        </mxCell>
        <mxCell id="7FaVFJheZvbhYCqxz50x-20" value="Dono" style="shape=umlActor;verticalLabelPosition=bottom;verticalAlign=top;html=1;" vertex="1" parent="1">
          <mxGeometry x="680" y="250" width="60" height="120" as="geometry" />
        </mxCell>
        <mxCell id="7FaVFJheZvbhYCqxz50x-25" value="Verificar sessÃ£o&lt;div&gt;de login&lt;/div&gt;" style="ellipse;whiteSpace=wrap;html=1;" vertex="1" parent="1">
          <mxGeometry x="460" y="220" width="100" height="50" as="geometry" />
        </mxCell>
        <mxCell id="7FaVFJheZvbhYCqxz50x-27" value="Verificar&lt;div&gt;credenciais&lt;/div&gt;" style="ellipse;whiteSpace=wrap;html=1;" vertex="1" parent="1">
          <mxGeometry x="430" y="60" width="100" height="50" as="geometry" />
        </mxCell>
        <mxCell id="7FaVFJheZvbhYCqxz50x-39" style="rounded=0;orthogonalLoop=1;jettySize=auto;html=1;exitX=0;exitY=0;exitDx=0;exitDy=0;entryX=1;entryY=1;entryDx=0;entryDy=0;dashed=1;dashPattern=12 12;endArrow=open;endFill=0;" edge="1" parent="1" source="7FaVFJheZvbhYCqxz50x-30" target="7FaVFJheZvbhYCqxz50x-12">
          <mxGeometry relative="1" as="geometry" />
        </mxCell>
        <mxCell id="7FaVFJheZvbhYCqxz50x-40" value="&amp;lt;&amp;lt;estender&amp;gt;&amp;gt;" style="edgeLabel;html=1;align=center;verticalAlign=middle;resizable=0;points=[];" vertex="1" connectable="0" parent="7FaVFJheZvbhYCqxz50x-39">
          <mxGeometry x="-0.0227" y="2" relative="1" as="geometry">
            <mxPoint x="1" as="offset" />
          </mxGeometry>
        </mxCell>
        <mxCell id="7FaVFJheZvbhYCqxz50x-30" value="Erro de&lt;div&gt;credenciais&lt;/div&gt;" style="ellipse;whiteSpace=wrap;html=1;" vertex="1" parent="1">
          <mxGeometry x="350" y="120" width="100" height="50" as="geometry" />
        </mxCell>
        <mxCell id="7FaVFJheZvbhYCqxz50x-49" style="edgeStyle=orthogonalEdgeStyle;rounded=0;orthogonalLoop=1;jettySize=auto;html=1;exitX=0;exitY=0.5;exitDx=0;exitDy=0;endArrow=none;endFill=0;" edge="1" parent="1" source="7FaVFJheZvbhYCqxz50x-31">
          <mxGeometry relative="1" as="geometry">
            <mxPoint x="400" y="360" as="targetPoint" />
          </mxGeometry>
        </mxCell>
        <mxCell id="7FaVFJheZvbhYCqxz50x-31" value="Conversar por&lt;div&gt;email&lt;/div&gt;" style="ellipse;whiteSpace=wrap;html=1;" vertex="1" parent="1">
          <mxGeometry x="480" y="390" width="100" height="50" as="geometry" />
        </mxCell>
        <mxCell id="7FaVFJheZvbhYCqxz50x-48" style="rounded=0;orthogonalLoop=1;jettySize=auto;html=1;exitX=0;exitY=0.5;exitDx=0;exitDy=0;edgeStyle=orthogonalEdgeStyle;endArrow=none;endFill=0;" edge="1" parent="1" source="7FaVFJheZvbhYCqxz50x-32">
          <mxGeometry relative="1" as="geometry">
            <mxPoint x="400" y="380" as="targetPoint" />
          </mxGeometry>
        </mxCell>
        <mxCell id="7FaVFJheZvbhYCqxz50x-32" value="Conversar pelo&lt;div&gt;linkedin&lt;/div&gt;" style="ellipse;whiteSpace=wrap;html=1;" vertex="1" parent="1">
          <mxGeometry x="480" y="320" width="100" height="50" as="geometry" />
        </mxCell>
        <mxCell id="7FaVFJheZvbhYCqxz50x-47" value="" style="endArrow=block;html=1;rounded=0;endFill=0;entryX=1;entryY=1;entryDx=0;entryDy=0;" edge="1" parent="1" target="7FaVFJheZvbhYCqxz50x-10">
          <mxGeometry width="50" height="50" relative="1" as="geometry">
            <mxPoint x="400" y="390" as="sourcePoint" />
            <mxPoint x="440" y="220" as="targetPoint" />
          </mxGeometry>
        </mxCell>
        <mxCell id="7FaVFJheZvbhYCqxz50x-50" value="Consultar&lt;div&gt;ajuda&lt;/div&gt;" style="ellipse;whiteSpace=wrap;html=1;" vertex="1" parent="1">
          <mxGeometry x="160" y="460" width="100" height="50" as="geometry" />
        </mxCell>
        <mxCell id="7FaVFJheZvbhYCqxz50x-52" value="Doar dinheiro" style="ellipse;whiteSpace=wrap;html=1;" vertex="1" parent="1">
          <mxGeometry x="160" y="520" width="100" height="50" as="geometry" />
        </mxCell>
        <mxCell id="7FaVFJheZvbhYCqxz50x-53" style="rounded=0;orthogonalLoop=1;jettySize=auto;html=1;exitX=0;exitY=0.5;exitDx=0;exitDy=0;entryX=1;entryY=0.3333333333333333;entryDx=0;entryDy=0;entryPerimeter=0;endArrow=none;endFill=0;" edge="1" parent="1" source="7FaVFJheZvbhYCqxz50x-52" target="7FaVFJheZvbhYCqxz50x-3">
          <mxGeometry relative="1" as="geometry" />
        </mxCell>
      </root>
    </mxGraphModel>
  </diagram>
</mxfile>
